<svg width="41" height="40" viewBox="0 0 41 40" fill="none" xmlns="http://www.w3.org/2000/svg">
<path d="M27.549 11.6667C27.549 11.2246 27.7261 10.8007 28.0414 10.4882C28.3567 10.1756 28.7844 10 29.2303 10C29.6763 10 30.1039 10.1756 30.4192 10.4882C30.7346 10.8007 30.9117 11.2246 30.9117 11.6667C30.9117 12.1087 30.7346 12.5326 30.4192 12.8452C30.1039 13.1577 29.6763 13.3333 29.2303 13.3333C28.7844 13.3333 28.3567 13.1577 28.0414 12.8452C27.7261 12.5326 27.549 12.1087 27.549 11.6667Z" fill="#304E4C"/>
<path fill-rule="evenodd" clip-rule="evenodd" d="M20.8235 12.0834C18.7053 12.0834 16.6739 12.9174 15.1761 14.4021C13.6784 15.8868 12.8369 17.9004 12.8369 20C12.8369 22.0997 13.6784 24.1133 15.1761 25.598C16.6739 27.0826 18.7053 27.9167 20.8235 27.9167C22.9416 27.9167 24.973 27.0826 26.4708 25.598C27.9686 24.1133 28.81 22.0997 28.81 20C28.81 17.9004 27.9686 15.8868 26.4708 14.4021C24.973 12.9174 22.9416 12.0834 20.8235 12.0834ZM15.359 20C15.359 18.5635 15.9347 17.1857 16.9595 16.1699C17.9843 15.1541 19.3742 14.5834 20.8235 14.5834C22.2727 14.5834 23.6626 15.1541 24.6874 16.1699C25.7122 17.1857 26.2879 18.5635 26.2879 20C26.2879 21.4366 25.7122 22.8144 24.6874 23.8302C23.6626 24.846 22.2727 25.4167 20.8235 25.4167C19.3742 25.4167 17.9843 24.846 16.9595 23.8302C15.9347 22.8144 15.359 21.4366 15.359 20Z" fill="#304E4C"/>
<path fill-rule="evenodd" clip-rule="evenodd" d="M29.6641 4.72165C23.7884 4.07569 17.8585 4.07569 11.9828 4.72165C8.59983 5.09665 5.86759 7.73832 5.47079 11.1083C4.77488 17.016 4.77488 22.9839 5.47079 28.8917C5.86759 32.2617 8.59815 34.9033 11.9828 35.2783C17.8586 35.9229 23.7883 35.9229 29.6641 35.2783C33.0471 34.9033 35.7793 32.2617 36.1761 28.8917C36.872 22.9839 36.872 17.016 36.1761 11.1083C35.7793 7.73832 33.0488 5.09665 29.6641 4.72165ZM12.2619 7.20499C17.9522 6.5795 23.6948 6.5795 29.385 7.20499C31.6213 7.45499 33.4119 9.20332 33.6726 11.4C34.347 17.1138 34.347 22.8861 33.6726 28.6C33.5378 29.6751 33.0413 30.6737 32.2633 31.4346C31.4853 32.1954 30.4713 32.6741 29.385 32.7933C23.6948 33.4188 17.9522 33.4188 12.2619 32.7933C11.1756 32.6741 10.1616 32.1954 9.38361 31.4346C8.60564 30.6737 8.10916 29.6751 7.97436 28.6C7.29988 22.8861 7.29988 17.1138 7.97436 11.4C8.10916 10.3249 8.60564 9.32628 9.38361 8.56541C10.1616 7.80453 11.1756 7.32417 12.2619 7.20499Z" fill="#304E4C"/>
</svg>
