<svg width="45" height="16" viewBox="0 0 45 16" fill="none" xmlns="http://www.w3.org/2000/svg">
<path d="M41.6665 7.99999H32.3332M41.6665 7.99999L38.9998 10.6667M41.6665 7.99999L38.9998 5.33332" stroke="#00A597" stroke-linecap="round" stroke-linejoin="round"/>
<path d="M28.2316 10.54C28.4016 10.52 28.5416 10.65 28.5416 10.83C28.5416 11 28.3916 11.14 28.2316 11.12C27.8116 11.08 27.5916 11.06 27.3516 11.06C27.0716 11.06 26.8616 11.08 26.4716 11.12C26.3116 11.14 26.1616 11 26.1616 10.83C26.1616 10.65 26.3016 10.52 26.4716 10.54C26.6416 10.55 26.8416 10.57 27.0316 10.58V4.23C26.8416 4.24 26.6416 4.26 26.4816 4.27C26.3016 4.29 26.1616 4.16 26.1616 3.99C26.1616 3.81 26.3016 3.68 26.4716 3.7C26.6716 3.72 26.9116 3.74 27.1316 3.75C27.4316 3.76 27.6716 4 27.6716 4.29V10.58C27.8616 10.57 28.0616 10.55 28.2316 10.54Z" fill="#00A597"/>
<path d="M25.048 10.54C25.218 10.52 25.358 10.65 25.358 10.83C25.358 11 25.208 11.14 25.048 11.12C24.628 11.08 24.408 11.06 24.168 11.06C23.888 11.06 23.678 11.08 23.288 11.12C23.128 11.14 22.978 11 22.978 10.83C22.978 10.65 23.118 10.52 23.288 10.54C23.458 10.55 23.658 10.57 23.848 10.58V4.23C23.658 4.24 23.458 4.26 23.298 4.27C23.118 4.29 22.978 4.16 22.978 3.99C22.978 3.81 23.118 3.68 23.288 3.7C23.488 3.72 23.728 3.74 23.948 3.75C24.248 3.76 24.488 4 24.488 4.29V10.58C24.678 10.57 24.878 10.55 25.048 10.54Z" fill="#00A597"/>
<path d="M19.4486 11.12C17.9886 11.12 16.8086 9.96 16.8086 8.53C16.8086 7.1 17.9886 5.94 19.4486 5.94C20.8986 5.94 22.0786 7.11 22.0786 8.53C22.0786 9.95 20.8986 11.12 19.4486 11.12ZM19.4486 10.53C20.5786 10.53 21.4586 9.65 21.4586 8.53C21.4586 7.42 20.5686 6.53 19.4486 6.53C18.3086 6.53 17.4286 7.4 17.4286 8.53C17.4286 9.65 18.3186 10.53 19.4486 10.53Z" fill="#00A597"/>
<path d="M16.5299 6.23999C16.6999 6.60999 16.4399 6.96999 16.0399 6.95999C15.7499 6.94999 15.5999 6.72999 15.5799 6.55999C14.7599 6.49999 14.0199 7.49999 13.7099 8.47999V10.58C13.9099 10.57 14.1099 10.55 14.2799 10.54C14.4499 10.52 14.5899 10.65 14.5899 10.83C14.5899 11 14.4399 11.14 14.2799 11.12C13.8599 11.08 13.6399 11.06 13.3999 11.06C13.1199 11.06 12.9099 11.08 12.5199 11.12C12.3599 11.14 12.2099 11 12.2099 10.83C12.2099 10.65 12.3499 10.52 12.5199 10.54C12.6899 10.55 12.8899 10.57 13.0799 10.58V6.55999C12.8899 6.56999 12.6899 6.57999 12.5199 6.59999C12.3299 6.61999 12.1699 6.46999 12.1699 6.26999C12.1699 6.07999 12.3399 5.92999 12.5199 5.94999C12.9399 5.98999 12.9899 5.98999 13.3999 5.98999C13.5799 5.98999 13.7099 6.12999 13.7099 6.29999V7.30999C14.1799 6.44999 14.7899 5.98999 15.5799 5.88999C16.0499 5.81999 16.4199 5.94999 16.5299 6.23999Z" fill="#00A597"/>
<path d="M11.1316 9.8C11.2616 9.95 11.2716 10.15 11.1516 10.28C10.6616 10.81 9.96158 11.11 9.26158 11.11C7.58158 11.11 6.62158 9.8 6.62158 8.53C6.62158 7.06 7.70158 5.94 9.13158 5.94C9.88158 5.94 10.5016 6.21 10.9116 6.72C11.2316 7.09 11.3316 7.46 11.1816 7.74C11.0816 7.91 10.9016 8.01 10.7016 8C10.4216 7.98 10.2116 7.74 10.2216 7.45C10.2316 7.33 10.3216 7.17 10.4016 7.13C10.1516 6.71 9.77158 6.51 9.13158 6.51C8.03158 6.51 7.25158 7.35 7.25158 8.53C7.25158 9.65 8.11158 10.51 9.23158 10.51C9.78158 10.51 10.3016 10.27 10.7316 9.81C10.8516 9.69 11.0316 9.69 11.1316 9.8Z" fill="#00A597"/>
<path d="M1.67983 5.60999C1.52983 7.50999 5.54983 6.62999 5.54983 9.10999C5.54983 10.27 4.52983 11.12 3.15983 11.12C2.19983 11.12 1.36983 10.77 0.82983 10.12C0.40983 9.64999 0.57983 9.05999 1.14983 9.01999C1.59983 8.99999 1.86983 9.51999 1.55983 9.93999C2.66983 10.98 4.88983 10.42 4.88983 9.10999C4.88983 7.31999 0.839831 8.07999 1.02983 5.55999C1.21983 2.90999 5.46983 3.54999 5.45983 4.87999C5.44983 5.18999 5.19983 5.43999 4.89983 5.43999C4.44983 5.43999 4.19983 4.90999 4.43983 4.60999C4.05983 4.33999 1.81983 3.96999 1.67983 5.60999Z" fill="#00A597"/>
</svg>
