<svg width="24" height="24" viewBox="0 0 24 24" fill="none" xmlns="http://www.w3.org/2000/svg">
<path d="M9.00015 16.1737L5.53015 12.7037C5.34317 12.5168 5.08957 12.4117 4.82515 12.4117C4.56072 12.4117 4.30712 12.5168 4.12015 12.7037C3.93317 12.8907 3.82813 13.1443 3.82812 13.4087C3.82813 13.5397 3.85391 13.6693 3.90402 13.7903C3.95412 13.9112 4.02756 14.0212 4.12015 14.1137L8.30015 18.2937C8.69015 18.6837 9.32015 18.6837 9.71015 18.2937L20.2901 7.71374C20.4771 7.52676 20.5822 7.27317 20.5822 7.00874C20.5822 6.74431 20.4771 6.49072 20.2901 6.30374C20.1032 6.11676 19.8496 6.01172 19.5851 6.01172C19.3207 6.01172 19.0671 6.11676 18.8801 6.30374L9.00015 16.1737Z" fill="#00A597"/>
</svg>
