<svg width="167" height="30" viewBox="0 0 167 30" fill="none" xmlns="http://www.w3.org/2000/svg">
<g clip-path="url(#clip0_1343_1778)">
<path d="M8.45132 29.3866L17.4817 0.0126953H34.6143L33.6052 3.29634H20.5642L17.5711 12.9769H30.2076L29.2241 16.2435H16.5833L12.5429 29.3824H8.45132V29.3866Z" fill="#B8193F"/>
<path d="M57.5031 17.7512C55.2977 25.3193 50.1715 29.9999 42.1502 29.9999C35.1209 29.9999 31.5573 25.3193 34.0139 17.7512L39.4679 0.0126953H43.5552L37.8032 18.7265C36.3727 23.7733 38.676 26.8355 43.3423 26.8355C48.0087 26.8355 51.7596 23.7691 53.4328 18.7265L59.1891 0.0126953H62.9614L57.5074 17.7512H57.5031Z" fill="#B8193F"/>
<path d="M111.873 17.7512C109.671 25.3193 104.545 29.9999 96.524 29.9999C89.4947 29.9999 85.9354 25.3193 88.3792 17.7512L93.8374 0.0126953H97.9333L92.177 18.7265C90.7464 23.7733 93.0455 26.8355 97.7119 26.8355C102.378 26.8355 106.133 23.7691 107.807 18.7265L113.559 0.0126953H117.327L111.873 17.7512Z" fill="#B8193F"/>
<path d="M59.5553 29.3866L68.5856 0.0126953H73.0859L69.0327 13.1004L84.9944 0.0126953H90.8699L73.699 13.9863L84.5985 29.3824H79.4595L68.9177 13.5348L64.0555 29.3824H59.5553V29.3866Z" fill="#B8193F"/>
<path d="M115.01 29.3866L124.041 0.0126953H128.32L119.289 29.3824H115.01V29.3866Z" fill="#B8193F"/>
<path d="M158.344 0.0126953L149.318 29.3824H144.477L137.716 3.82445H137.631L129.72 29.3824H126.08L135.111 0.0126953H140.718L147.155 24.3015H147.236L154.704 0.0126953H158.34H158.344Z" fill="#B8193F"/>
<path d="M1.93721 29.3867L10.8526 0H0V29.3867H1.93721Z" fill="#B8193F"/>
<path d="M165.063 0.0126953L156.143 29.4037H167V0.0126953H165.063Z" fill="#B8193F"/>
</g>
<defs>
<clipPath id="clip0_1343_1778">
<rect width="167" height="30" fill="white"/>
</clipPath>
</defs>
</svg>
